<?xml version="1.0" encoding="UTF-8"?>
<svg xmlns="http://www.w3.org/2000/svg" xmlns:xlink="http://www.w3.org/1999/xlink" width="1920" height="1080" viewBox="0 0 1920 1080">
<defs>
<g>
<g id="glyph-0-0">
<path d="M 0.171875 -0.277344 C 0.804688 -0.339844 1.207031 -0.484375 1.386719 -0.703125 C 1.566406 -0.925781 1.65625 -1.441406 1.65625 -2.246094 L 1.65625 -8.453125 C 1.65625 -9.003906 1.570312 -9.363281 1.394531 -9.53125 C 1.222656 -9.695312 0.824219 -9.792969 0.207031 -9.824219 L 0.207031 -10.109375 L 3.230469 -10.109375 L 6.765625 -2.402344 L 10.144531 -10.109375 L 13.1875 -10.109375 L 13.1875 -9.824219 C 12.621094 -9.785156 12.257812 -9.679688 12.09375 -9.515625 C 11.929688 -9.347656 11.847656 -8.992188 11.847656 -8.453125 L 11.847656 -1.65625 C 11.847656 -1.097656 11.929688 -0.742188 12.09375 -0.585938 C 12.257812 -0.429688 12.621094 -0.324219 13.1875 -0.277344 L 13.1875 0 L 8.90625 0 L 8.90625 -0.277344 C 9.523438 -0.328125 9.90625 -0.4375 10.058594 -0.609375 C 10.210938 -0.78125 10.285156 -1.1875 10.285156 -1.835938 L 10.285156 -8.699219 L 6.378906 0 L 6.167969 0 L 2.328125 -8.339844 L 2.328125 -2.246094 C 2.328125 -1.410156 2.449219 -0.867188 2.691406 -0.613281 C 2.851562 -0.449219 3.207031 -0.335938 3.757812 -0.277344 L 3.757812 0 L 0.171875 0 Z "/>
</g>
<g id="glyph-0-1">
<path d="M 4.378906 -4.132812 C 3.808594 -3.945312 3.335938 -3.734375 2.960938 -3.507812 C 2.246094 -3.0625 1.886719 -2.5625 1.886719 -2 C 1.886719 -1.546875 2.035156 -1.214844 2.335938 -1 C 2.527344 -0.859375 2.746094 -0.789062 2.984375 -0.789062 C 3.3125 -0.789062 3.625 -0.882812 3.925781 -1.066406 C 4.226562 -1.25 4.378906 -1.484375 4.378906 -1.769531 Z M 0.558594 -1.484375 C 0.558594 -2.207031 0.921875 -2.808594 1.640625 -3.289062 C 2.097656 -3.585938 3.011719 -3.992188 4.378906 -4.503906 L 4.378906 -5.140625 C 4.378906 -5.648438 4.328125 -6 4.230469 -6.199219 C 4.0625 -6.53125 3.710938 -6.699219 3.179688 -6.699219 C 2.925781 -6.699219 2.683594 -6.632812 2.453125 -6.503906 C 2.226562 -6.371094 2.109375 -6.1875 2.109375 -5.953125 C 2.109375 -5.894531 2.125 -5.792969 2.148438 -5.652344 C 2.171875 -5.507812 2.1875 -5.417969 2.1875 -5.378906 C 2.1875 -5.101562 2.09375 -4.90625 1.910156 -4.796875 C 1.804688 -4.730469 1.679688 -4.699219 1.535156 -4.699219 C 1.3125 -4.699219 1.140625 -4.773438 1.023438 -4.917969 C 0.902344 -5.066406 0.84375 -5.230469 0.84375 -5.410156 C 0.84375 -5.757812 1.058594 -6.121094 1.488281 -6.5 C 1.917969 -6.882812 2.546875 -7.070312 3.378906 -7.070312 C 4.34375 -7.070312 4.996094 -6.757812 5.339844 -6.132812 C 5.523438 -5.789062 5.617188 -5.289062 5.617188 -4.632812 L 5.617188 -1.640625 C 5.617188 -1.351562 5.636719 -1.152344 5.675781 -1.042969 C 5.742188 -0.851562 5.875 -0.753906 6.078125 -0.753906 C 6.195312 -0.753906 6.289062 -0.769531 6.363281 -0.804688 C 6.4375 -0.839844 6.566406 -0.925781 6.75 -1.058594 L 6.75 -0.671875 C 6.589844 -0.476562 6.421875 -0.316406 6.234375 -0.195312 C 5.957031 -0.00390625 5.675781 0.0898438 5.386719 0.0898438 C 5.046875 0.0898438 4.804688 -0.0195312 4.652344 -0.238281 C 4.5 -0.457031 4.417969 -0.71875 4.402344 -1.023438 C 4.023438 -0.695312 3.699219 -0.449219 3.429688 -0.289062 C 2.976562 -0.0234375 2.546875 0.113281 2.140625 0.113281 C 1.714844 0.113281 1.34375 -0.0390625 1.03125 -0.339844 C 0.714844 -0.640625 0.558594 -1.023438 0.558594 -1.484375 Z "/>
</g>
<g id="glyph-0-2">
<path d="M 3.886719 -6.878906 L 3.886719 -6.339844 L 2.363281 -6.339844 L 2.351562 -2.042969 C 2.351562 -1.664062 2.382812 -1.378906 2.445312 -1.1875 C 2.566406 -0.84375 2.800781 -0.671875 3.148438 -0.671875 C 3.328125 -0.671875 3.480469 -0.714844 3.613281 -0.796875 C 3.746094 -0.882812 3.894531 -1.015625 4.066406 -1.199219 L 4.257812 -1.035156 L 4.09375 -0.8125 C 3.835938 -0.464844 3.5625 -0.21875 3.273438 -0.0742188 C 2.984375 0.0703125 2.707031 0.140625 2.4375 0.140625 C 1.851562 0.140625 1.453125 -0.121094 1.246094 -0.640625 C 1.132812 -0.925781 1.074219 -1.316406 1.074219 -1.820312 L 1.074219 -6.339844 L 0.261719 -6.339844 C 0.238281 -6.355469 0.21875 -6.371094 0.207031 -6.386719 C 0.191406 -6.402344 0.1875 -6.421875 0.1875 -6.445312 C 0.1875 -6.496094 0.199219 -6.535156 0.21875 -6.5625 C 0.242188 -6.589844 0.3125 -6.652344 0.433594 -6.75 C 0.777344 -7.035156 1.023438 -7.265625 1.175781 -7.441406 C 1.328125 -7.617188 1.683594 -8.082031 2.246094 -8.839844 C 2.308594 -8.839844 2.347656 -8.835938 2.359375 -8.824219 C 2.371094 -8.816406 2.378906 -8.777344 2.378906 -8.710938 L 2.378906 -6.878906 Z "/>
</g>
<g id="glyph-0-3">
<path d="M 0.132812 -0.207031 C 0.542969 -0.261719 0.808594 -0.363281 0.9375 -0.511719 C 1.0625 -0.65625 1.125 -1.003906 1.125 -1.550781 L 1.125 -8.710938 C 1.125 -8.992188 1.089844 -9.195312 1.019531 -9.328125 C 0.945312 -9.460938 0.769531 -9.527344 0.492188 -9.527344 C 0.4375 -9.527344 0.382812 -9.523438 0.332031 -9.515625 C 0.28125 -9.507812 0.222656 -9.5 0.15625 -9.488281 L 0.15625 -9.757812 C 0.375 -9.820312 0.644531 -9.898438 0.964844 -9.992188 C 1.285156 -10.085938 1.507812 -10.148438 1.632812 -10.191406 L 2.351562 -10.414062 L 2.363281 -10.363281 L 2.363281 -5.78125 C 2.675781 -6.140625 2.957031 -6.402344 3.199219 -6.570312 C 3.636719 -6.871094 4.109375 -7.019531 4.617188 -7.019531 C 5.421875 -7.019531 5.972656 -6.679688 6.265625 -6.003906 C 6.425781 -5.648438 6.503906 -5.175781 6.503906 -4.59375 L 6.503906 -1.550781 C 6.503906 -1.023438 6.566406 -0.679688 6.6875 -0.523438 C 6.808594 -0.363281 7.058594 -0.257812 7.4375 -0.207031 L 7.4375 0 L 4.207031 0 L 4.207031 -0.207031 C 4.640625 -0.269531 4.917969 -0.371094 5.042969 -0.515625 C 5.167969 -0.660156 5.230469 -1.003906 5.230469 -1.550781 L 5.230469 -4.574219 C 5.230469 -5.054688 5.148438 -5.445312 4.988281 -5.742188 C 4.824219 -6.042969 4.519531 -6.191406 4.074219 -6.191406 C 3.683594 -6.191406 3.308594 -6.050781 2.945312 -5.773438 C 2.582031 -5.496094 2.402344 -5.3125 2.402344 -5.230469 L 2.402344 -1.550781 C 2.402344 -0.996094 2.464844 -0.648438 2.597656 -0.507812 C 2.726562 -0.367188 3 -0.269531 3.425781 -0.207031 L 3.425781 0 L 0.132812 0 Z "/>
</g>
<g id="glyph-0-4">
<path d="M 3.5 -6.996094 C 4.199219 -6.996094 4.8125 -6.753906 5.339844 -6.269531 C 5.867188 -5.785156 6.132812 -5.097656 6.132812 -4.207031 L 1.394531 -4.207031 C 1.445312 -3.054688 1.707031 -2.214844 2.179688 -1.6875 C 2.652344 -1.160156 3.210938 -0.894531 3.855469 -0.894531 C 4.378906 -0.894531 4.820312 -1.03125 5.175781 -1.304688 C 5.535156 -1.578125 5.867188 -1.96875 6.167969 -2.46875 L 6.429688 -2.378906 C 6.226562 -1.746094 5.84375 -1.164062 5.285156 -0.625 C 4.726562 -0.0898438 4.039062 0.179688 3.230469 0.179688 C 2.296875 0.179688 1.574219 -0.175781 1.0625 -0.878906 C 0.554688 -1.585938 0.296875 -2.398438 0.296875 -3.320312 C 0.296875 -4.320312 0.59375 -5.183594 1.1875 -5.90625 C 1.777344 -6.632812 2.546875 -6.996094 3.5 -6.996094 Z M 3.066406 -6.453125 C 2.5 -6.453125 2.066406 -6.203125 1.769531 -5.699219 C 1.609375 -5.429688 1.496094 -5.09375 1.425781 -4.683594 L 4.574219 -4.683594 C 4.519531 -5.179688 4.421875 -5.550781 4.289062 -5.796875 C 4.046875 -6.234375 3.636719 -6.453125 3.066406 -6.453125 Z "/>
</g>
<g id="glyph-0-5">
<path d="M 0.246094 -0.195312 C 0.632812 -0.230469 0.894531 -0.292969 1.023438 -0.386719 C 1.222656 -0.53125 1.320312 -0.820312 1.320312 -1.253906 L 1.320312 -5.109375 C 1.320312 -5.476562 1.273438 -5.71875 1.175781 -5.832031 C 1.078125 -5.949219 0.917969 -6.003906 0.695312 -6.003906 C 0.589844 -6.003906 0.511719 -6 0.457031 -5.988281 C 0.40625 -5.980469 0.34375 -5.960938 0.277344 -5.9375 L 0.277344 -6.199219 L 0.8125 -6.378906 C 1.007812 -6.441406 1.324219 -6.558594 1.769531 -6.730469 C 2.210938 -6.898438 2.445312 -6.980469 2.46875 -6.980469 C 2.492188 -6.980469 2.507812 -6.96875 2.515625 -6.945312 C 2.519531 -6.921875 2.519531 -6.871094 2.519531 -6.804688 L 2.519531 -5.796875 C 3.011719 -6.242188 3.4375 -6.554688 3.796875 -6.726562 C 4.15625 -6.898438 4.523438 -6.980469 4.902344 -6.980469 C 5.414062 -6.980469 5.820312 -6.808594 6.125 -6.460938 C 6.285156 -6.269531 6.414062 -6.015625 6.519531 -5.691406 C 6.886719 -6.066406 7.207031 -6.339844 7.480469 -6.519531 C 7.953125 -6.828125 8.4375 -6.980469 8.929688 -6.980469 C 9.730469 -6.980469 10.265625 -6.65625 10.53125 -6.003906 C 10.6875 -5.636719 10.765625 -5.054688 10.765625 -4.257812 L 10.765625 -1.164062 C 10.765625 -0.8125 10.84375 -0.570312 11 -0.445312 C 11.15625 -0.316406 11.4375 -0.234375 11.847656 -0.195312 L 11.847656 0 L 8.480469 0 L 8.480469 -0.207031 C 8.914062 -0.246094 9.199219 -0.335938 9.335938 -0.46875 C 9.472656 -0.605469 9.539062 -0.878906 9.539062 -1.289062 L 9.539062 -4.503906 C 9.539062 -4.988281 9.488281 -5.34375 9.382812 -5.574219 C 9.199219 -5.980469 8.839844 -6.183594 8.300781 -6.183594 C 7.980469 -6.183594 7.660156 -6.078125 7.339844 -5.863281 C 7.15625 -5.738281 6.929688 -5.539062 6.660156 -5.265625 L 6.660156 -1.445312 C 6.660156 -1.042969 6.730469 -0.738281 6.875 -0.53125 C 7.015625 -0.320312 7.316406 -0.207031 7.773438 -0.195312 L 7.773438 0 L 4.347656 0 L 4.347656 -0.195312 C 4.820312 -0.253906 5.121094 -0.367188 5.25 -0.535156 C 5.378906 -0.707031 5.445312 -1.121094 5.445312 -1.78125 L 5.445312 -3.871094 C 5.445312 -4.636719 5.394531 -5.164062 5.296875 -5.453125 C 5.132812 -5.941406 4.785156 -6.183594 4.253906 -6.183594 C 3.949219 -6.183594 3.648438 -6.101562 3.355469 -5.933594 C 3.0625 -5.765625 2.804688 -5.550781 2.582031 -5.28125 L 2.582031 -1.199219 C 2.582031 -0.824219 2.648438 -0.5625 2.777344 -0.417969 C 2.910156 -0.273438 3.199219 -0.199219 3.640625 -0.195312 L 3.640625 0 L 0.246094 0 Z "/>
</g>
<g id="glyph-0-6">
<path d="M 1.253906 -9.628906 C 1.253906 -9.84375 1.328125 -10.027344 1.476562 -10.183594 C 1.625 -10.335938 1.808594 -10.414062 2.027344 -10.414062 C 2.242188 -10.414062 2.425781 -10.335938 2.578125 -10.1875 C 2.730469 -10.035156 2.804688 -9.847656 2.804688 -9.628906 C 2.804688 -9.417969 2.730469 -9.234375 2.578125 -9.082031 C 2.425781 -8.929688 2.242188 -8.855469 2.027344 -8.855469 C 1.808594 -8.855469 1.625 -8.929688 1.476562 -9.082031 C 1.328125 -9.234375 1.253906 -9.417969 1.253906 -9.628906 Z M 0.296875 -0.207031 C 0.828125 -0.257812 1.167969 -0.347656 1.304688 -0.480469 C 1.445312 -0.613281 1.515625 -0.96875 1.515625 -1.550781 L 1.515625 -5.109375 C 1.515625 -5.433594 1.492188 -5.65625 1.445312 -5.78125 C 1.371094 -5.984375 1.214844 -6.085938 0.976562 -6.085938 C 0.921875 -6.085938 0.867188 -6.082031 0.816406 -6.070312 C 0.765625 -6.0625 0.613281 -6.023438 0.367188 -5.953125 L 0.367188 -6.183594 L 0.6875 -6.289062 C 1.558594 -6.570312 2.164062 -6.785156 2.507812 -6.929688 C 2.644531 -6.988281 2.734375 -7.019531 2.773438 -7.019531 C 2.785156 -6.984375 2.789062 -6.949219 2.789062 -6.90625 L 2.789062 -1.550781 C 2.789062 -0.984375 2.859375 -0.628906 2.996094 -0.484375 C 3.132812 -0.339844 3.441406 -0.25 3.921875 -0.207031 L 3.921875 0 L 0.296875 0 Z "/>
</g>
<g id="glyph-0-7">
<path d="M 3.796875 -7.035156 C 4.417969 -7.035156 4.953125 -6.875 5.40625 -6.554688 C 5.855469 -6.234375 6.078125 -5.878906 6.078125 -5.496094 C 6.078125 -5.332031 6.023438 -5.179688 5.90625 -5.039062 C 5.792969 -4.898438 5.617188 -4.828125 5.378906 -4.828125 C 5.203125 -4.828125 5.050781 -4.886719 4.917969 -5.003906 C 4.789062 -5.125 4.691406 -5.300781 4.632812 -5.527344 L 4.542969 -5.886719 C 4.476562 -6.148438 4.367188 -6.335938 4.207031 -6.445312 C 4.042969 -6.550781 3.828125 -6.601562 3.558594 -6.601562 C 2.992188 -6.601562 2.511719 -6.355469 2.121094 -5.859375 C 1.730469 -5.363281 1.535156 -4.707031 1.535156 -3.886719 C 1.535156 -3.136719 1.75 -2.460938 2.183594 -1.863281 C 2.613281 -1.269531 3.191406 -0.96875 3.921875 -0.96875 C 4.441406 -0.96875 4.902344 -1.140625 5.304688 -1.476562 C 5.53125 -1.671875 5.792969 -1.980469 6.078125 -2.402344 L 6.289062 -2.273438 C 6.003906 -1.679688 5.707031 -1.207031 5.394531 -0.859375 C 4.792969 -0.191406 4.09375 0.140625 3.304688 0.140625 C 2.527344 0.140625 1.84375 -0.164062 1.246094 -0.777344 C 0.648438 -1.386719 0.351562 -2.21875 0.351562 -3.265625 C 0.351562 -4.296875 0.675781 -5.183594 1.328125 -5.921875 C 1.980469 -6.664062 2.800781 -7.035156 3.796875 -7.035156 Z "/>
</g>
<g id="glyph-0-8">
<path d="M 0.3125 -0.207031 C 0.777344 -0.253906 1.089844 -0.347656 1.253906 -0.488281 C 1.417969 -0.628906 1.5 -0.90625 1.5 -1.320312 L 1.5 -8.609375 C 1.5 -8.9375 1.472656 -9.164062 1.417969 -9.289062 C 1.316406 -9.496094 1.117188 -9.601562 0.8125 -9.601562 C 0.742188 -9.601562 0.667969 -9.59375 0.585938 -9.578125 C 0.503906 -9.5625 0.398438 -9.539062 0.277344 -9.511719 L 0.277344 -9.757812 C 0.949219 -9.9375 1.753906 -10.175781 2.699219 -10.472656 C 2.734375 -10.472656 2.757812 -10.457031 2.765625 -10.429688 C 2.773438 -10.398438 2.773438 -10.335938 2.773438 -10.234375 L 2.773438 -1.289062 C 2.773438 -0.855469 2.847656 -0.578125 3 -0.453125 C 3.148438 -0.324219 3.457031 -0.242188 3.921875 -0.207031 L 3.921875 0 L 0.3125 0 Z "/>
</g>
<g id="glyph-0-9">
<path d="M 0.386719 -3.460938 C 0.386719 -4.449219 0.703125 -5.289062 1.332031 -5.972656 C 1.960938 -6.65625 2.769531 -6.996094 3.757812 -6.996094 C 4.742188 -6.996094 5.558594 -6.675781 6.207031 -6.027344 C 6.851562 -5.382812 7.175781 -4.519531 7.175781 -3.445312 C 7.175781 -2.457031 6.863281 -1.597656 6.234375 -0.867188 C 5.609375 -0.136719 4.800781 0.230469 3.804688 0.230469 C 2.851562 0.230469 2.042969 -0.121094 1.378906 -0.820312 C 0.71875 -1.523438 0.386719 -2.402344 0.386719 -3.460938 Z M 3.550781 -6.550781 C 3.15625 -6.550781 2.816406 -6.421875 2.527344 -6.160156 C 2.03125 -5.707031 1.78125 -4.929688 1.78125 -3.820312 C 1.78125 -2.933594 1.984375 -2.109375 2.382812 -1.34375 C 2.785156 -0.578125 3.339844 -0.195312 4.050781 -0.195312 C 4.609375 -0.195312 5.035156 -0.449219 5.335938 -0.960938 C 5.636719 -1.472656 5.789062 -2.144531 5.789062 -2.976562 C 5.789062 -3.835938 5.597656 -4.648438 5.214844 -5.410156 C 4.832031 -6.167969 4.277344 -6.550781 3.550781 -6.550781 Z "/>
</g>
<g id="glyph-0-10">
<path d="M 3.617188 -7.050781 C 3.980469 -7.050781 4.3125 -6.96875 4.617188 -6.8125 C 4.816406 -6.707031 5.007812 -6.5625 5.191406 -6.378906 L 5.191406 -8.75 C 5.191406 -9.054688 5.160156 -9.261719 5.089844 -9.375 C 5.023438 -9.492188 4.863281 -9.546875 4.609375 -9.546875 C 4.550781 -9.546875 4.5 -9.546875 4.453125 -9.539062 C 4.410156 -9.535156 4.308594 -9.527344 4.15625 -9.511719 L 4.15625 -9.757812 L 4.765625 -9.914062 C 4.988281 -9.972656 5.214844 -10.035156 5.4375 -10.101562 C 5.660156 -10.164062 5.859375 -10.226562 6.027344 -10.285156 C 6.105469 -10.3125 6.238281 -10.359375 6.421875 -10.429688 L 6.46875 -10.414062 L 6.453125 -9.628906 C 6.449219 -9.347656 6.441406 -9.054688 6.4375 -8.753906 C 6.433594 -8.453125 6.429688 -8.15625 6.429688 -7.863281 L 6.414062 -1.769531 C 6.414062 -1.445312 6.453125 -1.21875 6.535156 -1.089844 C 6.613281 -0.960938 6.824219 -0.894531 7.167969 -0.894531 C 7.222656 -0.894531 7.277344 -0.894531 7.332031 -0.898438 C 7.386719 -0.902344 7.441406 -0.90625 7.496094 -0.917969 L 7.496094 -0.671875 C 7.46875 -0.660156 7.105469 -0.535156 6.414062 -0.296875 L 5.242188 0.140625 L 5.191406 0.0742188 L 5.191406 -0.84375 C 4.914062 -0.539062 4.671875 -0.324219 4.46875 -0.195312 C 4.105469 0.03125 3.683594 0.140625 3.207031 0.140625 C 2.363281 0.140625 1.675781 -0.183594 1.152344 -0.839844 C 0.628906 -1.492188 0.367188 -2.25 0.367188 -3.109375 C 0.367188 -4.1875 0.679688 -5.117188 1.308594 -5.890625 C 1.9375 -6.664062 2.707031 -7.050781 3.617188 -7.050781 Z M 3.894531 -0.664062 C 4.28125 -0.664062 4.59375 -0.777344 4.832031 -1.007812 C 5.070312 -1.234375 5.191406 -1.453125 5.191406 -1.65625 L 5.191406 -4.855469 C 5.191406 -5.503906 5.019531 -5.960938 4.671875 -6.226562 C 4.328125 -6.492188 3.992188 -6.625 3.664062 -6.625 C 3.035156 -6.625 2.546875 -6.347656 2.199219 -5.792969 C 1.851562 -5.238281 1.679688 -4.554688 1.679688 -3.746094 C 1.679688 -2.945312 1.863281 -2.230469 2.234375 -1.605469 C 2.605469 -0.976562 3.15625 -0.664062 3.894531 -0.664062 Z "/>
</g>
<g id="glyph-0-11">
<path d="M 0.789062 -2.351562 L 1.035156 -2.351562 C 1.152344 -1.785156 1.304688 -1.347656 1.5 -1.042969 C 1.847656 -0.488281 2.355469 -0.207031 3.027344 -0.207031 C 3.402344 -0.207031 3.695312 -0.3125 3.914062 -0.519531 C 4.128906 -0.726562 4.238281 -0.992188 4.238281 -1.320312 C 4.238281 -1.527344 4.175781 -1.730469 4.050781 -1.925781 C 3.925781 -2.117188 3.707031 -2.308594 3.394531 -2.492188 L 2.558594 -2.96875 C 1.945312 -3.296875 1.496094 -3.628906 1.207031 -3.960938 C 0.917969 -4.292969 0.777344 -4.6875 0.777344 -5.140625 C 0.777344 -5.695312 0.976562 -6.152344 1.371094 -6.511719 C 1.769531 -6.871094 2.269531 -7.050781 2.871094 -7.050781 C 3.136719 -7.050781 3.425781 -7 3.742188 -6.898438 C 4.058594 -6.800781 4.234375 -6.75 4.273438 -6.75 C 4.363281 -6.75 4.429688 -6.761719 4.46875 -6.789062 C 4.507812 -6.8125 4.542969 -6.851562 4.574219 -6.90625 L 4.75 -6.90625 L 4.804688 -4.828125 L 4.574219 -4.828125 C 4.472656 -5.308594 4.339844 -5.683594 4.171875 -5.953125 C 3.863281 -6.449219 3.417969 -6.699219 2.835938 -6.699219 C 2.488281 -6.699219 2.214844 -6.59375 2.015625 -6.378906 C 1.816406 -6.164062 1.714844 -5.914062 1.714844 -5.625 C 1.714844 -5.167969 2.058594 -4.757812 2.746094 -4.402344 L 3.730469 -3.871094 C 4.789062 -3.292969 5.320312 -2.625 5.320312 -1.859375 C 5.320312 -1.269531 5.097656 -0.789062 4.660156 -0.417969 C 4.21875 -0.0429688 3.644531 0.140625 2.929688 0.140625 C 2.632812 0.140625 2.296875 0.09375 1.917969 -0.0078125 C 1.539062 -0.105469 1.316406 -0.15625 1.246094 -0.15625 C 1.1875 -0.15625 1.132812 -0.136719 1.089844 -0.09375 C 1.042969 -0.0507812 1.007812 0 0.984375 0.0585938 L 0.789062 0.0585938 Z "/>
</g>
<g id="glyph-0-12">
<path d="M 0.296875 -0.207031 C 0.824219 -0.234375 1.171875 -0.332031 1.339844 -0.503906 C 1.507812 -0.675781 1.589844 -1.035156 1.589844 -1.589844 L 1.589844 -6.378906 L 0.3125 -6.378906 L 0.3125 -6.878906 L 1.589844 -6.878906 C 1.589844 -7.664062 1.695312 -8.328125 1.910156 -8.871094 C 2.316406 -9.910156 3.066406 -10.429688 4.15625 -10.429688 C 4.59375 -10.429688 4.984375 -10.339844 5.328125 -10.167969 C 5.675781 -9.992188 5.847656 -9.757812 5.847656 -9.464844 C 5.847656 -9.300781 5.789062 -9.15625 5.667969 -9.027344 C 5.550781 -8.898438 5.40625 -8.832031 5.238281 -8.832031 C 5.09375 -8.832031 4.96875 -8.875 4.863281 -8.960938 C 4.757812 -9.050781 4.636719 -9.203125 4.492188 -9.421875 L 4.363281 -9.617188 C 4.292969 -9.71875 4.210938 -9.808594 4.117188 -9.878906 C 4.023438 -9.953125 3.890625 -9.988281 3.722656 -9.988281 C 3.34375 -9.988281 3.089844 -9.800781 2.953125 -9.429688 C 2.878906 -9.230469 2.84375 -8.96875 2.84375 -8.644531 L 2.84375 -6.878906 L 4.714844 -6.878906 L 4.714844 -6.378906 L 2.855469 -6.378906 L 2.855469 -1.589844 C 2.855469 -1.027344 2.933594 -0.667969 3.085938 -0.511719 C 3.238281 -0.355469 3.632812 -0.253906 4.273438 -0.207031 L 4.273438 0 L 0.296875 0 Z "/>
</g>
<g id="glyph-0-13">
<path d="M 0.0664062 -0.246094 C 0.523438 -0.285156 0.828125 -0.367188 0.976562 -0.488281 C 1.125 -0.609375 1.199219 -0.871094 1.199219 -1.269531 L 1.199219 -4.632812 C 1.199219 -5.125 1.15625 -5.476562 1.0625 -5.6875 C 0.972656 -5.898438 0.804688 -6.003906 0.558594 -6.003906 C 0.507812 -6.003906 0.445312 -6 0.363281 -5.988281 C 0.28125 -5.972656 0.195312 -5.957031 0.105469 -5.9375 L 0.105469 -6.183594 C 0.386719 -6.285156 0.679688 -6.386719 0.976562 -6.488281 C 1.273438 -6.59375 1.480469 -6.667969 1.597656 -6.714844 C 1.84375 -6.808594 2.101562 -6.914062 2.363281 -7.035156 C 2.398438 -7.035156 2.421875 -7.023438 2.429688 -6.996094 C 2.4375 -6.972656 2.4375 -6.921875 2.4375 -6.839844 L 2.4375 -5.617188 C 2.757812 -6.058594 3.066406 -6.40625 3.359375 -6.652344 C 3.65625 -6.902344 3.964844 -7.027344 4.28125 -7.027344 C 4.535156 -7.027344 4.742188 -6.949219 4.902344 -6.800781 C 5.0625 -6.648438 5.140625 -6.457031 5.140625 -6.230469 C 5.140625 -6.027344 5.078125 -5.851562 4.957031 -5.714844 C 4.835938 -5.574219 4.683594 -5.503906 4.5 -5.503906 C 4.308594 -5.503906 4.117188 -5.59375 3.925781 -5.765625 C 3.734375 -5.941406 3.585938 -6.027344 3.476562 -6.027344 C 3.300781 -6.027344 3.089844 -5.886719 2.835938 -5.605469 C 2.582031 -5.324219 2.453125 -5.035156 2.453125 -4.738281 L 2.453125 -1.371094 C 2.453125 -0.945312 2.554688 -0.648438 2.753906 -0.480469 C 2.953125 -0.3125 3.28125 -0.234375 3.746094 -0.246094 L 3.746094 0 L 0.0664062 0 Z "/>
</g>
<g id="glyph-0-14">
<path d="M 5.65625 -10.285156 C 6.207031 -10.285156 6.773438 -10.203125 7.355469 -10.039062 C 7.9375 -9.875 8.261719 -9.792969 8.332031 -9.792969 C 8.476562 -9.792969 8.613281 -9.835938 8.742188 -9.914062 C 8.871094 -9.992188 8.960938 -10.117188 9.011719 -10.285156 L 9.332031 -10.285156 L 9.472656 -6.855469 L 9.125 -6.855469 C 8.917969 -7.535156 8.652344 -8.085938 8.324219 -8.503906 C 7.699219 -9.289062 6.855469 -9.683594 5.796875 -9.683594 C 4.726562 -9.683594 3.851562 -9.261719 3.175781 -8.414062 C 2.496094 -7.570312 2.15625 -6.40625 2.15625 -4.921875 C 2.15625 -3.558594 2.511719 -2.472656 3.226562 -1.660156 C 3.941406 -0.847656 4.84375 -0.441406 5.9375 -0.441406 C 6.726562 -0.441406 7.457031 -0.628906 8.125 -1.007812 C 8.507812 -1.222656 8.925781 -1.542969 9.382812 -1.976562 L 9.667969 -1.691406 C 9.328125 -1.265625 8.910156 -0.890625 8.40625 -0.566406 C 7.550781 -0.0195312 6.625 0.253906 5.625 0.253906 C 3.984375 0.253906 2.679688 -0.269531 1.714844 -1.320312 C 0.824219 -2.289062 0.378906 -3.5 0.378906 -4.953125 C 0.378906 -6.441406 0.851562 -7.6875 1.789062 -8.699219 C 2.78125 -9.757812 4.066406 -10.285156 5.65625 -10.285156 Z "/>
</g>
<g id="glyph-0-15">
<path d="M 0.277344 -0.207031 C 0.628906 -0.253906 0.875 -0.34375 1.019531 -0.472656 C 1.160156 -0.605469 1.230469 -0.898438 1.230469 -1.359375 L 1.230469 -5.140625 C 1.230469 -5.457031 1.199219 -5.683594 1.140625 -5.8125 C 1.046875 -6 0.851562 -6.09375 0.558594 -6.09375 C 0.515625 -6.09375 0.46875 -6.09375 0.421875 -6.085938 C 0.375 -6.082031 0.316406 -6.074219 0.246094 -6.066406 L 0.246094 -6.324219 C 0.449219 -6.386719 0.933594 -6.539062 1.691406 -6.789062 L 2.394531 -7.019531 C 2.429688 -7.019531 2.449219 -7.007812 2.457031 -6.980469 C 2.464844 -6.957031 2.46875 -6.921875 2.46875 -6.878906 L 2.46875 -5.78125 C 2.925781 -6.207031 3.285156 -6.503906 3.542969 -6.660156 C 3.929688 -6.90625 4.335938 -7.027344 4.75 -7.027344 C 5.089844 -7.027344 5.398438 -6.929688 5.675781 -6.734375 C 6.214844 -6.359375 6.484375 -5.683594 6.484375 -4.714844 L 6.484375 -1.230469 C 6.484375 -0.871094 6.554688 -0.613281 6.699219 -0.453125 C 6.84375 -0.296875 7.085938 -0.214844 7.421875 -0.207031 L 7.421875 0 L 4.238281 0 L 4.238281 -0.207031 C 4.601562 -0.257812 4.855469 -0.359375 4.996094 -0.511719 C 5.140625 -0.664062 5.214844 -0.992188 5.214844 -1.5 L 5.214844 -4.683594 C 5.214844 -5.113281 5.132812 -5.464844 4.976562 -5.746094 C 4.816406 -6.027344 4.523438 -6.167969 4.09375 -6.167969 C 3.800781 -6.167969 3.503906 -6.070312 3.199219 -5.871094 C 3.03125 -5.757812 2.8125 -5.566406 2.542969 -5.304688 L 2.542969 -1.125 C 2.542969 -0.769531 2.625 -0.527344 2.78125 -0.40625 C 2.941406 -0.285156 3.191406 -0.21875 3.535156 -0.207031 L 3.535156 0 L 0.277344 0 Z "/>
</g>
<g id="glyph-0-16">
<path d="M 1.5 1.378906 C 1.5 1.796875 1.734375 2.085938 2.203125 2.246094 C 2.675781 2.40625 3.210938 2.484375 3.820312 2.484375 C 4.644531 2.484375 5.316406 2.339844 5.832031 2.054688 C 6.351562 1.769531 6.609375 1.417969 6.609375 1 C 6.609375 0.667969 6.398438 0.445312 5.984375 0.335938 C 5.726562 0.269531 5.234375 0.234375 4.511719 0.222656 C 4.328125 0.21875 4.136719 0.210938 3.929688 0.207031 C 3.726562 0.199219 3.539062 0.1875 3.371094 0.179688 C 3.261719 0.175781 3.085938 0.152344 2.84375 0.121094 C 2.597656 0.0859375 2.417969 0.0546875 2.296875 0.03125 C 2.238281 0.03125 2.089844 0.1875 1.859375 0.5 C 1.621094 0.816406 1.5 1.113281 1.5 1.378906 Z M 2.46875 -2.507812 C 2.015625 -2.65625 1.664062 -2.921875 1.414062 -3.304688 C 1.164062 -3.6875 1.035156 -4.117188 1.035156 -4.59375 C 1.035156 -5.175781 1.269531 -5.730469 1.730469 -6.25 C 2.191406 -6.773438 2.847656 -7.035156 3.691406 -7.035156 C 4.054688 -7.035156 4.457031 -6.949219 4.894531 -6.777344 C 5.332031 -6.605469 5.75 -6.519531 6.152344 -6.519531 C 6.257812 -6.519531 6.417969 -6.523438 6.628906 -6.53125 C 6.839844 -6.539062 6.992188 -6.542969 7.085938 -6.542969 L 7.175781 -6.542969 L 7.175781 -5.9375 L 5.886719 -5.9375 C 5.976562 -5.730469 6.042969 -5.546875 6.09375 -5.394531 C 6.179688 -5.105469 6.222656 -4.832031 6.222656 -4.574219 C 6.222656 -4.007812 5.988281 -3.484375 5.515625 -3.011719 C 5.046875 -2.535156 4.414062 -2.296875 3.617188 -2.296875 C 3.492188 -2.296875 3.269531 -2.320312 2.945312 -2.363281 C 2.800781 -2.363281 2.613281 -2.242188 2.375 -2 C 2.140625 -1.753906 2.023438 -1.554688 2.023438 -1.402344 C 2.023438 -1.242188 2.195312 -1.125 2.542969 -1.050781 C 2.773438 -1 3.027344 -0.976562 3.304688 -0.976562 C 4.582031 -0.976562 5.449219 -0.90625 5.90625 -0.761719 C 6.660156 -0.527344 7.035156 -0.0234375 7.035156 0.746094 C 7.035156 1.53125 6.59375 2.160156 5.71875 2.625 C 4.839844 3.09375 3.953125 3.328125 3.058594 3.328125 C 2.242188 3.328125 1.597656 3.160156 1.117188 2.832031 C 0.640625 2.5 0.402344 2.152344 0.402344 1.789062 C 0.402344 1.609375 0.464844 1.4375 0.59375 1.265625 C 0.71875 1.09375 0.96875 0.839844 1.34375 0.5 L 1.835938 0.0585938 L 1.925781 -0.03125 C 1.695312 -0.121094 1.523438 -0.207031 1.410156 -0.289062 C 1.210938 -0.445312 1.113281 -0.621094 1.113281 -0.820312 C 1.113281 -1.003906 1.199219 -1.207031 1.367188 -1.429688 C 1.539062 -1.648438 1.90625 -2.007812 2.46875 -2.507812 Z M 3.886719 -2.65625 C 4.160156 -2.65625 4.390625 -2.730469 4.574219 -2.878906 C 4.871094 -3.117188 5.019531 -3.535156 5.019531 -4.125 C 5.019531 -4.597656 4.898438 -5.128906 4.660156 -5.722656 C 4.417969 -6.3125 4.015625 -6.609375 3.453125 -6.609375 C 2.964844 -6.609375 2.628906 -6.378906 2.445312 -5.914062 C 2.351562 -5.671875 2.304688 -5.371094 2.304688 -5.011719 C 2.304688 -4.40625 2.453125 -3.863281 2.746094 -3.378906 C 3.039062 -2.898438 3.417969 -2.65625 3.886719 -2.65625 Z "/>
</g>
<g id="glyph-0-17">
<path d="M 1.1875 -1.296875 C 1.460938 -1.296875 1.820312 -1.15625 2.269531 -0.871094 C 2.722656 -0.589844 3.101562 -0.449219 3.417969 -0.449219 C 4.113281 -0.449219 4.628906 -0.683594 4.96875 -1.152344 C 5.304688 -1.621094 5.476562 -2.132812 5.476562 -2.683594 C 5.476562 -3.21875 5.339844 -3.683594 5.066406 -4.085938 C 4.601562 -4.769531 3.820312 -5.109375 2.722656 -5.109375 C 2.65625 -5.109375 2.597656 -5.109375 2.535156 -5.105469 C 2.476562 -5.101562 2.40625 -5.097656 2.328125 -5.085938 L 2.3125 -5.28125 C 3.109375 -5.570312 3.734375 -5.902344 4.191406 -6.273438 C 4.648438 -6.648438 4.878906 -7.140625 4.878906 -7.75 C 4.878906 -8.292969 4.699219 -8.707031 4.335938 -8.988281 C 3.976562 -9.273438 3.566406 -9.414062 3.101562 -9.414062 C 2.554688 -9.414062 2.074219 -9.210938 1.65625 -8.808594 C 1.425781 -8.589844 1.179688 -8.253906 0.917969 -7.796875 L 0.6875 -7.847656 C 0.886719 -8.601562 1.253906 -9.207031 1.796875 -9.660156 C 2.339844 -10.113281 2.964844 -10.339844 3.675781 -10.339844 C 4.4375 -10.339844 5.027344 -10.128906 5.441406 -9.710938 C 5.855469 -9.292969 6.066406 -8.8125 6.066406 -8.265625 C 6.066406 -7.78125 5.894531 -7.339844 5.550781 -6.9375 C 5.355469 -6.707031 5.054688 -6.453125 4.648438 -6.167969 C 5.125 -5.964844 5.507812 -5.726562 5.796875 -5.453125 C 6.339844 -4.929688 6.609375 -4.269531 6.609375 -3.46875 C 6.609375 -2.523438 6.238281 -1.691406 5.492188 -0.96875 C 4.75 -0.25 3.691406 0.113281 2.320312 0.113281 C 1.707031 0.113281 1.28125 0.0195312 1.03125 -0.160156 C 0.785156 -0.34375 0.664062 -0.535156 0.664062 -0.746094 C 0.664062 -0.875 0.703125 -1 0.785156 -1.117188 C 0.867188 -1.238281 1.003906 -1.296875 1.1875 -1.296875 Z "/>
</g>
<g id="glyph-0-18">
<path d="M 3.140625 -1.179688 C 3.140625 -0.929688 3.203125 -0.765625 3.324219 -0.6875 C 3.445312 -0.605469 3.699219 -0.566406 4.082031 -0.566406 C 5.273438 -0.566406 6.257812 -0.804688 7.027344 -1.277344 C 8.210938 -2.003906 8.800781 -3.242188 8.800781 -4.996094 C 8.800781 -6.5625 8.316406 -7.742188 7.339844 -8.535156 C 6.503906 -9.210938 5.398438 -9.546875 4.019531 -9.546875 C 3.675781 -9.546875 3.445312 -9.511719 3.324219 -9.4375 C 3.203125 -9.363281 3.140625 -9.199219 3.140625 -8.945312 Z M 0.246094 -0.277344 C 0.804688 -0.335938 1.167969 -0.4375 1.335938 -0.578125 C 1.503906 -0.71875 1.589844 -1.078125 1.589844 -1.65625 L 1.589844 -8.453125 C 1.589844 -9.007812 1.507812 -9.367188 1.34375 -9.527344 C 1.179688 -9.6875 0.8125 -9.785156 0.246094 -9.824219 L 0.246094 -10.109375 L 4.363281 -10.109375 C 5.75 -10.109375 6.925781 -9.878906 7.886719 -9.421875 C 9.617188 -8.601562 10.480469 -7.132812 10.480469 -5.019531 C 10.480469 -4.257812 10.324219 -3.535156 10.015625 -2.847656 C 9.703125 -2.164062 9.234375 -1.582031 8.609375 -1.113281 C 8.210938 -0.8125 7.796875 -0.585938 7.371094 -0.433594 C 6.589844 -0.144531 5.628906 0 4.492188 0 L 0.246094 0 Z "/>
</g>
<g id="glyph-0-19">
<path d="M 0.597656 -3.921875 L 4.347656 -3.921875 L 4.347656 -2.96875 L 0.597656 -2.96875 Z "/>
</g>
<g id="glyph-0-20">
<path d="M 0.453125 -0.171875 C 2.273438 -2.0625 3.511719 -3.449219 4.164062 -4.335938 C 4.816406 -5.21875 5.140625 -6.082031 5.140625 -6.921875 C 5.140625 -7.660156 4.941406 -8.21875 4.542969 -8.605469 C 4.144531 -8.992188 3.671875 -9.183594 3.117188 -9.183594 C 2.4375 -9.183594 1.886719 -8.933594 1.460938 -8.4375 C 1.226562 -8.164062 1.003906 -7.742188 0.789062 -7.175781 L 0.46875 -7.242188 C 0.71875 -8.386719 1.140625 -9.179688 1.734375 -9.625 C 2.328125 -10.070312 2.964844 -10.292969 3.648438 -10.292969 C 4.488281 -10.292969 5.167969 -10.03125 5.6875 -9.5 C 6.207031 -8.96875 6.46875 -8.324219 6.46875 -7.554688 C 6.46875 -6.742188 6.1875 -5.957031 5.625 -5.199219 C 5.0625 -4.445312 3.839844 -3.097656 1.960938 -1.164062 L 5.386719 -1.164062 C 5.863281 -1.164062 6.199219 -1.222656 6.394531 -1.335938 C 6.585938 -1.449219 6.804688 -1.726562 7.050781 -2.171875 L 7.242188 -2.082031 L 6.414062 0 L 0.453125 0 Z "/>
</g>
<g id="glyph-0-21">
<path d="M 6.609375 -7.332031 C 6.609375 -8.265625 6.207031 -8.910156 5.402344 -9.257812 C 4.96875 -9.445312 4.421875 -9.539062 3.757812 -9.539062 C 3.445312 -9.539062 3.253906 -9.511719 3.179688 -9.449219 C 3.109375 -9.386719 3.074219 -9.246094 3.074219 -9.035156 L 3.074219 -5.050781 C 3.347656 -5.027344 3.527344 -5.011719 3.609375 -5.003906 C 3.695312 -5 3.777344 -4.996094 3.855469 -4.996094 C 4.558594 -4.996094 5.109375 -5.097656 5.511719 -5.296875 C 6.242188 -5.660156 6.609375 -6.339844 6.609375 -7.332031 Z M 0.246094 -0.277344 C 0.828125 -0.332031 1.191406 -0.445312 1.335938 -0.621094 C 1.480469 -0.800781 1.550781 -1.203125 1.550781 -1.835938 L 1.550781 -8.453125 C 1.550781 -8.984375 1.472656 -9.335938 1.308594 -9.503906 C 1.148438 -9.671875 0.792969 -9.78125 0.246094 -9.824219 L 0.246094 -10.109375 L 4.273438 -10.109375 C 5.566406 -10.109375 6.558594 -9.855469 7.242188 -9.355469 C 7.929688 -8.851562 8.273438 -8.191406 8.273438 -7.371094 C 8.273438 -6.332031 7.890625 -5.578125 7.132812 -5.109375 C 6.371094 -4.640625 5.417969 -4.410156 4.273438 -4.410156 C 4.109375 -4.410156 3.898438 -4.414062 3.644531 -4.417969 C 3.386719 -4.425781 3.199219 -4.429688 3.074219 -4.429688 L 3.074219 -1.65625 C 3.074219 -1.078125 3.160156 -0.714844 3.339844 -0.566406 C 3.515625 -0.417969 3.910156 -0.320312 4.519531 -0.277344 L 4.519531 0 L 0.246094 0 Z "/>
</g>
<g id="glyph-0-22">
<path d="M 1.679688 -9.628906 C 1.679688 -9.84375 1.753906 -10.027344 1.902344 -10.183594 C 2.050781 -10.335938 2.234375 -10.414062 2.453125 -10.414062 C 2.667969 -10.414062 2.851562 -10.335938 3.003906 -10.183594 C 3.15625 -10.027344 3.230469 -9.84375 3.230469 -9.628906 C 3.230469 -9.417969 3.152344 -9.234375 3.003906 -9.082031 C 2.851562 -8.929688 2.667969 -8.855469 2.453125 -8.855469 C 2.234375 -8.855469 2.050781 -8.929688 1.902344 -9.082031 C 1.753906 -9.234375 1.679688 -9.417969 1.679688 -9.628906 Z M -0.269531 1.894531 C -0.0117188 1.894531 0.242188 2.050781 0.488281 2.363281 C 0.734375 2.675781 0.953125 2.835938 1.140625 2.835938 C 1.453125 2.835938 1.664062 2.652344 1.777344 2.289062 C 1.839844 2.070312 1.875 1.707031 1.878906 1.195312 C 1.882812 1.011719 1.886719 0.558594 1.886719 -0.164062 L 1.886719 -5.074219 C 1.886719 -5.410156 1.855469 -5.660156 1.789062 -5.820312 C 1.726562 -5.984375 1.578125 -6.066406 1.34375 -6.066406 C 1.273438 -6.066406 1.183594 -6.050781 1.070312 -6.027344 C 0.957031 -6.003906 0.84375 -5.972656 0.722656 -5.9375 L 0.722656 -6.167969 L 1.359375 -6.378906 C 1.511719 -6.429688 1.710938 -6.496094 1.957031 -6.582031 C 2.203125 -6.667969 2.4375 -6.757812 2.664062 -6.839844 L 3.109375 -6.996094 C 3.128906 -6.96875 3.140625 -6.933594 3.140625 -6.894531 L 3.140625 0 C 3.140625 0.859375 3.03125 1.53125 2.8125 2.015625 C 2.414062 2.898438 1.652344 3.34375 0.53125 3.34375 C 0.164062 3.34375 -0.164062 3.265625 -0.453125 3.117188 C -0.738281 2.96875 -0.878906 2.769531 -0.878906 2.519531 C -0.878906 2.355469 -0.824219 2.210938 -0.707031 2.085938 C -0.59375 1.957031 -0.449219 1.894531 -0.269531 1.894531 Z "/>
</g>
</g>
</defs>
<g fill="rgb(34.509804%, 76.862745%, 86.666667%)" fill-opacity="1">
<use xlink:href="#glyph-0-0" x="30" y="31.458008"/>
</g>
<g fill="rgb(34.901961%, 76.470588%, 84.705882%)" fill-opacity="1">
<use xlink:href="#glyph-0-1" x="44" y="31.458008"/>
</g>
<g fill="rgb(35.686275%, 76.470588%, 82.745098%)" fill-opacity="1">
<use xlink:href="#glyph-0-2" x="51" y="31.458008"/>
</g>
<g fill="rgb(36.078431%, 76.470588%, 81.176471%)" fill-opacity="1">
<use xlink:href="#glyph-0-3" x="55" y="31.458008"/>
</g>
<g fill="rgb(36.862745%, 76.470588%, 79.215686%)" fill-opacity="1">
<use xlink:href="#glyph-0-4" x="63" y="31.458008"/>
</g>
<g fill="rgb(37.647059%, 76.470588%, 77.647059%)" fill-opacity="1">
<use xlink:href="#glyph-0-5" x="70" y="31.458008"/>
</g>
<g fill="rgb(38.039216%, 76.470588%, 75.686275%)" fill-opacity="1">
<use xlink:href="#glyph-0-1" x="82" y="31.458008"/>
</g>
<g fill="rgb(38.823529%, 76.470588%, 74.117647%)" fill-opacity="1">
<use xlink:href="#glyph-0-2" x="89" y="31.458008"/>
</g>
<g fill="rgb(39.607843%, 76.470588%, 72.156863%)" fill-opacity="1">
<use xlink:href="#glyph-0-6" x="93" y="31.458008"/>
</g>
<g fill="rgb(40%, 76.078431%, 70.588235%)" fill-opacity="1">
<use xlink:href="#glyph-0-7" x="97" y="31.458008"/>
</g>
<g fill="rgb(40.784314%, 76.078431%, 68.627451%)" fill-opacity="1">
<use xlink:href="#glyph-0-1" x="104" y="31.458008"/>
</g>
<g fill="rgb(41.568627%, 76.078431%, 67.058824%)" fill-opacity="1">
<use xlink:href="#glyph-0-8" x="111" y="31.458008"/>
</g>
<g fill="rgb(42.745098%, 76.078431%, 63.529412%)" fill-opacity="1">
<use xlink:href="#glyph-0-0" x="119" y="31.458008"/>
</g>
<g fill="rgb(43.529412%, 76.078431%, 61.568627%)" fill-opacity="1">
<use xlink:href="#glyph-0-4" x="133" y="31.458008"/>
</g>
<g fill="rgb(43.921569%, 76.078431%, 59.607843%)" fill-opacity="1">
<use xlink:href="#glyph-0-2" x="140" y="31.458008"/>
</g>
<g fill="rgb(44.705882%, 76.078431%, 58.039216%)" fill-opacity="1">
<use xlink:href="#glyph-0-3" x="144" y="31.458008"/>
</g>
<g fill="rgb(45.490196%, 76.078431%, 56.078431%)" fill-opacity="1">
<use xlink:href="#glyph-0-9" x="152" y="31.458008"/>
</g>
<g fill="rgb(45.882353%, 75.686275%, 54.509804%)" fill-opacity="1">
<use xlink:href="#glyph-0-10" x="160" y="31.458008"/>
</g>
<g fill="rgb(46.666667%, 75.686275%, 52.54902%)" fill-opacity="1">
<use xlink:href="#glyph-0-11" x="168" y="31.458008"/>
</g>
<g fill="rgb(47.843137%, 75.686275%, 49.019608%)" fill-opacity="1">
<use xlink:href="#glyph-0-12" x="178" y="31.458008"/>
</g>
<g fill="rgb(48.627451%, 75.686275%, 47.45098%)" fill-opacity="1">
<use xlink:href="#glyph-0-9" x="183" y="31.458008"/>
</g>
<g fill="rgb(49.411765%, 75.686275%, 45.490196%)" fill-opacity="1">
<use xlink:href="#glyph-0-13" x="191" y="31.458008"/>
</g>
<g fill="rgb(50.588235%, 75.686275%, 41.960784%)" fill-opacity="1">
<use xlink:href="#glyph-0-14" x="200" y="31.458008"/>
</g>
<g fill="rgb(51.372549%, 75.686275%, 40.392157%)" fill-opacity="1">
<use xlink:href="#glyph-0-13" x="210" y="31.458008"/>
</g>
<g fill="rgb(52.941176%, 75.686275%, 40.392157%)" fill-opacity="1">
<use xlink:href="#glyph-0-4" x="215" y="31.458008"/>
</g>
<g fill="rgb(54.509804%, 76.078431%, 40.392157%)" fill-opacity="1">
<use xlink:href="#glyph-0-1" x="222" y="31.458008"/>
</g>
<g fill="rgb(56.470588%, 76.470588%, 40.392157%)" fill-opacity="1">
<use xlink:href="#glyph-0-2" x="229" y="31.458008"/>
</g>
<g fill="rgb(58.039216%, 76.862745%, 40.784314%)" fill-opacity="1">
<use xlink:href="#glyph-0-6" x="233" y="31.458008"/>
</g>
<g fill="rgb(60%, 77.254902%, 40.784314%)" fill-opacity="1">
<use xlink:href="#glyph-0-15" x="237" y="31.458008"/>
</g>
<g fill="rgb(61.568627%, 77.647059%, 40.784314%)" fill-opacity="1">
<use xlink:href="#glyph-0-16" x="245" y="31.458008"/>
</g>
<g fill="rgb(65.098039%, 78.431373%, 41.176471%)" fill-opacity="1">
<use xlink:href="#glyph-0-17" x="257" y="31.458008"/>
</g>
<g fill="rgb(67.058824%, 78.823529%, 41.176471%)" fill-opacity="1">
<use xlink:href="#glyph-0-18" x="265" y="31.458008"/>
</g>
<g fill="rgb(68.627451%, 79.215686%, 41.568627%)" fill-opacity="1">
<use xlink:href="#glyph-0-19" x="276" y="31.458008"/>
</g>
<g fill="rgb(70.588235%, 79.607843%, 41.568627%)" fill-opacity="1">
<use xlink:href="#glyph-0-2" x="281" y="31.458008"/>
</g>
<g fill="rgb(72.156863%, 80%, 41.568627%)" fill-opacity="1">
<use xlink:href="#glyph-0-9" x="285" y="31.458008"/>
</g>
<g fill="rgb(74.117647%, 80.392157%, 41.960784%)" fill-opacity="1">
<use xlink:href="#glyph-0-19" x="293" y="31.458008"/>
</g>
<g fill="rgb(75.686275%, 80.392157%, 41.960784%)" fill-opacity="1">
<use xlink:href="#glyph-0-20" x="298" y="31.458008"/>
</g>
<g fill="rgb(77.254902%, 80.784314%, 41.960784%)" fill-opacity="1">
<use xlink:href="#glyph-0-18" x="306" y="31.458008"/>
</g>
<g fill="rgb(80.784314%, 81.568627%, 42.352941%)" fill-opacity="1">
<use xlink:href="#glyph-0-21" x="321" y="31.458008"/>
</g>
<g fill="rgb(82.745098%, 81.960784%, 42.352941%)" fill-opacity="1">
<use xlink:href="#glyph-0-13" x="329" y="31.458008"/>
</g>
<g fill="rgb(84.313725%, 82.352941%, 42.352941%)" fill-opacity="1">
<use xlink:href="#glyph-0-9" x="334" y="31.458008"/>
</g>
<g fill="rgb(86.27451%, 82.745098%, 42.745098%)" fill-opacity="1">
<use xlink:href="#glyph-0-22" x="342" y="31.458008"/>
</g>
<g fill="rgb(87.843137%, 83.137255%, 42.745098%)" fill-opacity="1">
<use xlink:href="#glyph-0-4" x="346" y="31.458008"/>
</g>
<g fill="rgb(89.803922%, 83.529412%, 42.745098%)" fill-opacity="1">
<use xlink:href="#glyph-0-7" x="353" y="31.458008"/>
</g>
<g fill="rgb(91.372549%, 83.921569%, 43.137255%)" fill-opacity="1">
<use xlink:href="#glyph-0-2" x="360" y="31.458008"/>
</g>
<g fill="rgb(93.333333%, 84.313725%, 43.137255%)" fill-opacity="1">
<use xlink:href="#glyph-0-6" x="364" y="31.458008"/>
</g>
<g fill="rgb(94.901961%, 84.705882%, 43.137255%)" fill-opacity="1">
<use xlink:href="#glyph-0-9" x="368" y="31.458008"/>
</g>
<g fill="rgb(96.862745%, 85.098039%, 43.529412%)" fill-opacity="1">
<use xlink:href="#glyph-0-15" x="376" y="31.458008"/>
</g>
</svg>
